<svg width="106" height="26" viewBox="0 0 106 26" fill="none" xmlns="http://www.w3.org/2000/svg">
<path d="M4.48029 22C4.34688 22 4.23348 21.94 4.14009 21.82C4.0467 21.7 4 21.5543 4 21.3829V4.64286C4 4.45429 4.0467 4.3 4.14009 4.18C4.23348 4.06 4.34688 4 4.48029 4H13.2856C13.4324 4 13.5525 4.06 13.6459 4.18C13.7393 4.3 13.7859 4.45429 13.7859 4.64286V6.34C13.7859 6.51143 13.7393 6.65714 13.6459 6.77714C13.5525 6.89714 13.4324 6.95714 13.2856 6.95714H6.70164V11.5086H12.8454C12.9921 11.5086 13.1122 11.5686 13.2056 11.6886C13.299 11.7914 13.3457 11.9371 13.3457 12.1257V13.72C13.3457 13.9086 13.299 14.0629 13.2056 14.1829C13.1122 14.2857 12.9921 14.3371 12.8454 14.3371H6.70164V19.0429H13.4457C13.5925 19.0429 13.7126 19.1029 13.806 19.2229C13.8993 19.3429 13.946 19.4971 13.946 19.6857V21.3829C13.946 21.5543 13.8993 21.7 13.806 21.82C13.7126 21.94 13.5925 22 13.4457 22H4.48029Z" fill="#FAF9F6"/>
<path d="M21.0146 22C20.8011 22 20.6343 21.9314 20.5143 21.7943C20.3942 21.6571 20.3075 21.4857 20.2541 21.28L15.9715 4.77143C15.9448 4.68572 15.9315 4.60857 15.9315 4.54C15.9315 4.38571 15.9715 4.25714 16.0515 4.15429C16.1316 4.05143 16.2316 4 16.3517 4H18.1128C18.2996 4 18.4397 4.06857 18.533 4.20571C18.6398 4.32571 18.7065 4.44571 18.7332 4.56571L22.1152 17.8086L25.4773 4.56571C25.5173 4.44571 25.584 4.32571 25.6774 4.20571C25.7841 4.06857 25.9309 4 26.1177 4H27.8787C27.9855 4 28.0788 4.05143 28.1589 4.15429C28.2523 4.25714 28.299 4.38571 28.299 4.54C28.299 4.60857 28.2856 4.68572 28.259 4.77143L23.9764 21.28C23.923 21.4857 23.8363 21.6571 23.7162 21.7943C23.5961 21.9314 23.4294 22 23.2159 22H21.0146Z" fill="#FAF9F6"/>
<path d="M31.4975 22C31.3641 22 31.2507 21.94 31.1573 21.82C31.0639 21.7 31.0172 21.5543 31.0172 21.3829V4.64286C31.0172 4.45429 31.0639 4.3 31.1573 4.18C31.2507 4.06 31.3641 4 31.4975 4H40.3028C40.4496 4 40.5697 4.06 40.6631 4.18C40.7564 4.3 40.8031 4.45429 40.8031 4.64286V6.34C40.8031 6.51143 40.7564 6.65714 40.6631 6.77714C40.5697 6.89714 40.4496 6.95714 40.3028 6.95714H33.7188V11.5086H39.8626C40.0093 11.5086 40.1294 11.5686 40.2228 11.6886C40.3162 11.7914 40.3629 11.9371 40.3629 12.1257V13.72C40.3629 13.9086 40.3162 14.0629 40.2228 14.1829C40.1294 14.2857 40.0093 14.3371 39.8626 14.3371H33.7188V19.0429H40.4629C40.6097 19.0429 40.7298 19.1029 40.8232 19.2229C40.9165 19.3429 40.9632 19.4971 40.9632 19.6857V21.3829C40.9632 21.5543 40.9165 21.7 40.8232 21.82C40.7298 21.94 40.6097 22 40.4629 22H31.4975Z" fill="#FAF9F6"/>
<path d="M44.5468 22C44.4134 22 44.3 21.94 44.2066 21.82C44.1132 21.7 44.0665 21.5543 44.0665 21.3829V4.64286C44.0665 4.45429 44.1132 4.3 44.2066 4.18C44.3 4.06 44.4134 4 44.5468 4H46.0878C46.2745 4 46.408 4.06 46.488 4.18C46.5814 4.28286 46.6414 4.36 46.6681 4.41143L52.4316 15.9314V4.64286C52.4316 4.45429 52.4716 4.3 52.5517 4.18C52.6451 4.06 52.7651 4 52.9119 4H54.5929C54.7397 4 54.8597 4.06 54.9531 4.18C55.0465 4.3 55.0932 4.45429 55.0932 4.64286V21.3571C55.0932 21.5457 55.0465 21.7 54.9531 21.82C54.8597 21.94 54.7463 22 54.6129 22H53.052C52.8652 22 52.7318 21.94 52.6517 21.82C52.5717 21.7 52.5117 21.6229 52.4716 21.5886L46.7281 10.3257V21.3829C46.7281 21.5543 46.6814 21.7 46.5881 21.82C46.4947 21.94 46.3746 22 46.2278 22H44.5468Z" fill="#FAF9F6"/>
<path d="M62.3783 22C62.2449 22 62.1315 21.94 62.0381 21.82C61.9447 21.7 61.898 21.5543 61.898 21.3829V7.16286H58.1957C58.0623 7.16286 57.9489 7.10286 57.8555 6.98286C57.7621 6.86286 57.7154 6.71714 57.7154 6.54571V4.64286C57.7154 4.45429 57.7621 4.3 57.8555 4.18C57.9489 4.06 58.0623 4 58.1957 4H68.4019C68.5487 4 68.6688 4.06 68.7622 4.18C68.8556 4.3 68.9022 4.45429 68.9022 4.64286V6.54571C68.9022 6.71714 68.8556 6.86286 68.7622 6.98286C68.6688 7.10286 68.5487 7.16286 68.4019 7.16286H64.7197V21.3829C64.7197 21.5543 64.673 21.7 64.5796 21.82C64.4862 21.94 64.3662 22 64.2194 22H62.3783Z" fill="#FAF9F6"/>
<path d="M72.0135 22C71.8801 22 71.7667 21.94 71.6733 21.82C71.5799 21.7 71.5332 21.5543 71.5332 21.3829V4.61714C71.5332 4.44571 71.5799 4.3 71.6733 4.18C71.7667 4.06 71.8801 4 72.0135 4H73.8946C74.0414 4 74.1548 4.06 74.2348 4.18C74.3282 4.3 74.3749 4.44571 74.3749 4.61714V21.3829C74.3749 21.5543 74.3282 21.7 74.2348 21.82C74.1548 21.94 74.0414 22 73.8946 22H72.0135Z" fill="#FAF9F6"/>
<path d="M78.5941 22C78.4606 22 78.3472 21.94 78.2539 21.82C78.1605 21.7 78.1138 21.5543 78.1138 21.3829V4.64286C78.1138 4.45429 78.1605 4.3 78.2539 4.18C78.3472 4.06 78.4606 4 78.5941 4H87.2793C87.4261 4 87.5462 4.06 87.6396 4.18C87.7329 4.3 87.7796 4.45429 87.7796 4.64286V6.44286C87.7796 6.63143 87.7329 6.78571 87.6396 6.90571C87.5462 7.00857 87.4261 7.06 87.2793 7.06H80.8554V11.9457H86.8791C87.0259 11.9457 87.1459 12.0057 87.2393 12.1257C87.3327 12.2457 87.3794 12.4 87.3794 12.5886V14.3886C87.3794 14.56 87.3327 14.7057 87.2393 14.8257C87.1459 14.9457 87.0259 15.0057 86.8791 15.0057H80.8554V21.3829C80.8554 21.5543 80.8087 21.7 80.7153 21.82C80.622 21.94 80.5019 22 80.3551 22H78.5941Z" fill="#FAF9F6"/>
<path d="M94.8957 22C94.7623 22 94.6489 21.94 94.5555 21.82C94.4621 21.7 94.4154 21.5543 94.4154 21.3829V15.5714L89.6925 4.82286C89.6792 4.78857 89.6658 4.74571 89.6525 4.69429C89.6392 4.64286 89.6325 4.59143 89.6325 4.54C89.6325 4.38571 89.6725 4.25714 89.7526 4.15429C89.8326 4.05143 89.926 4 90.0327 4H91.8138C91.9739 4 92.1006 4.05143 92.194 4.15429C92.3008 4.25714 92.3742 4.36857 92.4142 4.48857L95.8162 11.9714L99.1983 4.48857C99.2517 4.36857 99.325 4.25714 99.4184 4.15429C99.5252 4.05143 99.6586 4 99.8187 4H101.58C101.7 4 101.8 4.05143 101.88 4.15429C101.96 4.25714 102 4.38571 102 4.54C102 4.59143 101.993 4.64286 101.98 4.69429C101.98 4.74571 101.967 4.78857 101.94 4.82286L97.2171 15.5714V21.3829C97.2171 21.5543 97.1704 21.7 97.077 21.82C96.9836 21.94 96.8635 22 96.7168 22H94.8957Z" fill="#FAF9F6"/>
<path d="M40.9629 19.6855C40.9629 19.4971 40.9166 19.3426 40.8232 19.2227C40.7299 19.1027 40.6096 19.043 40.4629 19.043H33.7188V14.3369H39.8623C40.0091 14.3369 40.1293 14.2855 40.2227 14.1826C40.316 14.0626 40.3633 13.9083 40.3633 13.7197V12.126C40.3633 11.9374 40.316 11.7913 40.2227 11.6885C40.1526 11.5986 40.0678 11.542 39.9678 11.5195L39.8623 11.5088H33.7188V6.95703H40.3027C40.4494 6.95703 40.5697 6.89727 40.6631 6.77734C40.7565 6.65734 40.8027 6.51127 40.8027 6.33984V4.64258C40.8027 4.45413 40.7564 4.29963 40.6631 4.17969C40.5697 4.05981 40.4494 4 40.3027 4H31.4971C31.3639 4.00012 31.2505 4.05992 31.1572 4.17969C31.0639 4.29963 31.0176 4.45413 31.0176 4.64258V21.3828C31.0176 21.5542 31.0638 21.7003 31.1572 21.8203C31.2505 21.9401 31.3639 21.9999 31.4971 22H40.4629C40.6096 22 40.7299 21.9402 40.8232 21.8203C40.9166 21.7003 40.9629 21.5542 40.9629 21.3828V19.6855ZM94.415 21.3828C94.415 21.5542 94.4623 21.7003 94.5557 21.8203C94.6257 21.9102 94.7072 21.9659 94.7998 21.9883L94.8955 22H96.7168L96.8223 21.9883C96.8888 21.9732 96.9487 21.9434 97.002 21.8984L97.0771 21.8203C97.1705 21.7003 97.2168 21.5542 97.2168 21.3828V15.5713L101.94 4.82324C101.954 4.80603 101.963 4.78618 101.97 4.76465L101.98 4.69434C101.987 4.66865 101.992 4.64287 101.995 4.61719L102 4.54004C102 4.38575 101.96 4.25715 101.88 4.1543C101.82 4.07716 101.749 4.02905 101.666 4.00977L101.58 4V0C102.958 0.000103075 104.119 0.629908 104.888 1.5166L105.036 1.69727L105.166 1.87305C105.788 2.75529 106 3.72008 106 4.54004C106 4.78481 105.977 5.02431 105.94 5.25781C105.884 5.68 105.76 6.13145 105.537 6.57812L101.217 16.4111V21.3828C101.217 22.3248 100.942 23.3654 100.233 24.2764C99.4141 25.3292 98.1485 26 96.7168 26H94.8955C93.345 25.9999 92.1295 25.2158 91.3984 24.2764C90.6897 23.3654 90.415 22.3247 90.415 21.3828V17.2568C90.4087 17.2651 90.4029 17.2739 90.3965 17.2822C89.5771 18.335 88.3106 19.0059 86.8789 19.0059H84.8555V21.3828C84.8555 22.3247 84.5809 23.3654 83.8721 24.2764C83.0528 25.3291 81.7871 25.9999 80.3555 26H78.5938C77.6879 25.9999 76.8973 25.7311 76.25 25.3213C75.5506 25.763 74.7365 26 73.8945 26H72.0137C70.4631 26 69.2477 25.2158 68.5166 24.2764C68.3674 24.0846 68.2382 23.8867 68.126 23.6855C68.0138 23.8865 67.8855 24.0847 67.7363 24.2764C66.9171 25.3291 65.6513 25.9999 64.2197 26H62.3779C60.8275 25.9999 59.6129 25.2157 58.8818 24.2764C58.7347 24.0873 58.6063 23.8926 58.4951 23.6943C58.3853 23.8907 58.2578 24.0856 58.1094 24.2764C57.3783 25.2157 56.1638 25.9999 54.6133 26H53.0518C52.0665 25.9999 50.6486 25.6619 49.6191 24.4287C48.799 25.393 47.5887 26 46.2275 26H44.5469C43.7803 26 43.0963 25.8072 42.5117 25.5C41.8988 25.8189 41.2034 26 40.4629 26H31.4971C29.9466 25.9999 28.732 25.2157 28.001 24.2764C27.7716 23.9816 27.5872 23.6736 27.4434 23.3594C27.2593 23.725 27.0247 24.0881 26.7256 24.4297C25.7136 25.5853 24.3648 26 23.2158 26H21.0146C19.8657 26 18.5168 25.5853 17.5049 24.4297C17.3804 24.2875 17.2684 24.1402 17.165 23.9922C17.1015 24.0877 17.0353 24.1833 16.9629 24.2764C16.1436 25.3292 14.8771 26 13.4453 26H4.48047C2.92983 26 1.71448 25.2158 0.983398 24.2764C0.274531 23.3654 0 22.3247 0 21.3828V4.64258C4.83571e-05 3.78267 0.223133 2.70063 0.983398 1.72363C1.71449 0.784232 2.92983 0 4.48047 0H13.2852C13.8277 0 14.3465 0.097512 14.8262 0.274414C15.2933 0.0997318 15.8052 1.93303e-05 16.3516 0H18.1123V4H16.3516C16.2316 4.00005 16.1318 4.05155 16.0518 4.1543C15.9717 4.25715 15.9316 4.38575 15.9316 4.54004C15.9316 4.6086 15.945 4.68579 15.9717 4.77148L20.2539 21.2803C20.3073 21.4859 20.3946 21.6568 20.5146 21.7939C20.6047 21.8968 20.7207 21.9616 20.8633 21.9873L21.0146 22H23.2158L23.3672 21.9873C23.5098 21.9616 23.6257 21.8968 23.7158 21.7939C23.8059 21.6911 23.8772 21.5692 23.9297 21.4277L23.9766 21.2803L28.2588 4.77148C28.2855 4.68579 28.2988 4.6086 28.2988 4.54004C28.2988 4.38583 28.2525 4.25713 28.1592 4.1543C28.0792 4.0515 27.9856 4.00006 27.8789 4H26.1172V0H27.8789C28.5589 2.70214e-05 29.159 0.154479 29.6758 0.393555C30.2112 0.148454 30.8224 6.09136e-05 31.4971 0H40.3027C41.0761 0 41.8003 0.197141 42.4326 0.542969C43.0343 0.210902 43.7454 0 44.5469 0H46.0879V4H44.5469C44.4136 4 44.3004 4.05995 44.207 4.17969C44.1137 4.29963 44.0665 4.45413 44.0664 4.64258V21.3828C44.0664 21.5542 44.1136 21.7003 44.207 21.8203C44.3004 21.94 44.4136 22 44.5469 22H46.2275L46.333 21.9883C46.3996 21.9733 46.4594 21.9434 46.5127 21.8984L46.5879 21.8203C46.6579 21.7304 46.7022 21.6257 46.7197 21.5068L46.7285 21.3828V10.3262L52.4717 21.5889L52.5469 21.6719C52.5769 21.7105 52.6113 21.7603 52.6514 21.8203C52.7114 21.9103 52.8019 21.9658 52.9219 21.9883L53.0518 22H54.6133L54.709 21.9883C54.7707 21.9733 54.8272 21.9434 54.8789 21.8984L54.9531 21.8203C55.0231 21.7303 55.0665 21.6207 55.084 21.4922L55.0928 21.3574V4.64258C55.0927 4.45413 55.0465 4.29963 54.9531 4.17969C54.8598 4.05982 54.7394 4 54.5928 4H52.9121V0H54.5928C55.2373 0 55.8477 0.137338 56.3994 0.382812C56.9288 0.144511 57.5312 6.1404e-05 58.1953 0H68.4023L68.668 0.0078125C69.2166 0.0399362 69.7364 0.173031 70.2129 0.385742C70.7435 0.146131 71.3474 0 72.0137 0H73.8945V4H72.0137C71.8803 4 71.7662 4.05969 71.6729 4.17969C71.5795 4.29968 71.5332 4.44577 71.5332 4.61719V21.3828C71.5332 21.5542 71.5795 21.7003 71.6729 21.8203C71.7428 21.9102 71.8246 21.9657 71.917 21.9883L72.0137 22H73.8945L73.998 21.9883C74.0956 21.9659 74.1743 21.9101 74.2344 21.8203C74.3044 21.7304 74.3487 21.6257 74.3662 21.5068L74.375 21.3828V4.61719C74.375 4.44576 74.3278 4.29969 74.2344 4.17969C74.1543 4.05998 74.0411 4 73.8945 4V0C74.7365 0 75.5506 0.23704 76.25 0.678711C76.8973 0.268866 77.6879 6.22484e-05 78.5938 0H87.2793C87.7637 0 88.2285 0.0783861 88.6641 0.220703C89.0763 0.0822608 89.5337 0 90.0332 0H91.8135C92.8686 0 94.0832 0.367608 95.0371 1.34277C95.3148 1.6208 95.5832 1.95356 95.8105 2.34473C95.9993 2.02312 96.2174 1.7298 96.457 1.46582L96.5469 1.36621L96.6426 1.27441C97.5577 0.392459 98.7141 7.47743e-05 99.8184 0H101.58V4H99.8184C99.6584 4.00007 99.5246 4.05151 99.418 4.1543C99.3247 4.25702 99.2516 4.36846 99.1982 4.48828L95.8164 11.9717L92.4141 4.48828C92.384 4.39842 92.335 4.31364 92.2676 4.2334L92.1943 4.1543C92.1009 4.05144 91.9736 4 91.8135 4H90.0332C89.9265 4 89.8329 4.05156 89.7529 4.1543C89.6729 4.25715 89.6328 4.38575 89.6328 4.54004C89.6328 4.59145 89.639 4.64292 89.6523 4.69434C89.6657 4.74576 89.679 4.78896 89.6924 4.82324L94.415 15.5713V21.3828ZM4.48047 4C4.34705 4 4.23304 4.05969 4.13965 4.17969C4.04631 4.29963 4.00005 4.45414 4 4.64258V21.3828C4 21.5542 4.04627 21.7003 4.13965 21.8203C4.23304 21.9403 4.34705 22 4.48047 22H13.4453L13.5508 21.9883C13.6174 21.9733 13.6772 21.9434 13.7305 21.8984L13.8057 21.8203C13.8757 21.7304 13.92 21.6257 13.9375 21.5068L13.9463 21.3828V19.6855C13.9463 19.4971 13.899 19.3426 13.8057 19.2227C13.7356 19.1328 13.6508 19.0762 13.5508 19.0537L13.4453 19.043H6.70117V14.3369H12.8457L12.9502 14.3271C13.0171 14.3143 13.0774 14.2888 13.1309 14.25L13.2061 14.1826C13.2758 14.0928 13.3194 13.9837 13.3369 13.8555L13.3457 13.7197V12.126C13.3457 11.9375 13.2993 11.7913 13.2061 11.6885C13.1359 11.5984 13.0504 11.542 12.9502 11.5195L12.8457 11.5088H6.70117V6.95703H13.2852C13.4318 6.95703 13.5522 6.89715 13.6455 6.77734C13.7389 6.65734 13.7861 6.51127 13.7861 6.33984V4.64258C13.7861 4.45413 13.7389 4.29963 13.6455 4.17969C13.5522 4.05993 13.4318 4 13.2852 4H4.48047ZM52.9121 4L52.8066 4.01172C52.7068 4.03424 52.6217 4.08991 52.5518 4.17969L52.499 4.27637C52.454 4.37916 52.4317 4.50127 52.4316 4.64258V15.9316L46.668 4.41113C46.6412 4.3597 46.5815 4.28235 46.4883 4.17969C46.4282 4.08974 46.3378 4.03421 46.2178 4.01172L46.0879 4V0C47.0732 3.08884e-05 48.491 0.338093 49.5205 1.57129C50.3407 0.60692 51.551 0 52.9121 0V4ZM64.7197 7.16309H68.4023C68.5489 7.16298 68.6684 7.10231 68.7617 6.98242C68.855 6.86248 68.9023 6.71722 68.9023 6.5459V4.64258C68.9023 4.45413 68.8551 4.29963 68.7617 4.17969C68.6685 4.06007 68.5488 4.00011 68.4023 4H58.1953C58.0621 4.00013 57.9487 4.05992 57.8555 4.17969C57.7621 4.29963 57.7159 4.45413 57.7158 4.64258V6.5459C57.7159 6.7171 57.7623 6.86252 57.8555 6.98242C57.9488 7.10229 58.0621 7.16296 58.1953 7.16309H61.8984V21.3828L61.9072 21.5068C61.9248 21.6256 61.9681 21.7304 62.0381 21.8203C62.1081 21.9102 62.1897 21.9658 62.2822 21.9883L62.3779 22H64.2197L64.3242 21.9883C64.3911 21.9733 64.4514 21.9436 64.5049 21.8984L64.5801 21.8203C64.6501 21.7304 64.6934 21.6257 64.7109 21.5068L64.7197 21.3828V7.16309ZM80.8555 15.0059H86.8789L86.9844 14.9941C87.051 14.9791 87.1108 14.9492 87.1641 14.9043L87.2393 14.8262C87.3092 14.7362 87.3536 14.6315 87.3711 14.5127L87.3799 14.3887V12.5889C87.3799 12.4004 87.3326 12.246 87.2393 12.126C87.1459 12.006 87.0257 11.9453 86.8789 11.9453H80.8555V7.05957H87.2793C87.4261 7.05957 87.5463 7.00813 87.6396 6.90527C87.7329 6.78532 87.7793 6.63079 87.7793 6.44238V4.64258C87.7793 4.45413 87.733 4.29963 87.6396 4.17969C87.5463 4.05979 87.426 4 87.2793 4H78.5938C78.4606 4.00009 78.3472 4.05993 78.2539 4.17969C78.1606 4.29963 78.1143 4.45413 78.1143 4.64258V21.3828L78.1221 21.5068C78.1396 21.6257 78.1839 21.7304 78.2539 21.8203C78.324 21.9102 78.4055 21.9658 78.498 21.9883L78.5938 22H80.3555L80.46 21.9883C80.5269 21.9733 80.5871 21.9436 80.6406 21.8984L80.7158 21.8203C80.7858 21.7304 80.8291 21.6257 80.8467 21.5068L80.8555 21.3828V15.0059ZM25.4775 4.56543L22.1152 17.8086L18.7334 4.56543C18.7134 4.47552 18.6704 4.3858 18.6055 4.2959L18.5332 4.20605C18.4398 4.06891 18.2991 4 18.1123 4V0C19.3537 0 20.7305 0.509708 21.6729 1.72754C21.821 1.91018 21.9703 2.1208 22.1094 2.35938C22.2399 2.13445 22.3791 1.9307 22.5205 1.74902L22.6992 1.5332C23.6172 0.48974 24.8851 0.000123953 26.1172 0V4C25.9306 4.00011 25.7844 4.06903 25.6777 4.20605C25.5844 4.32593 25.5176 4.44556 25.4775 4.56543Z" fill="#414141"/>
</svg>
